<svg width="656" height="440" viewBox="0 0 656 440" fill="none" xmlns="http://www.w3.org/2000/svg">
<g clip-path="url(#clip0_2_576)">
<g filter="url(#filter0_d_2_576)">
<g clip-path="url(#clip1_2_576)">
<rect x="24" y="83" width="549.029" height="325" rx="3.94418" fill="white"/>
<path d="M498.789 376.459C498.789 378.634 500.258 380.269 502.445 380.269C504.62 380.269 506.1 378.634 506.1 376.459C506.1 374.283 504.62 372.649 502.445 372.649C500.258 372.649 498.789 374.283 498.789 376.459ZM505.15 376.459C505.15 378.17 504.09 379.452 502.445 379.452C500.788 379.452 499.739 378.17 499.739 376.459C499.739 374.736 500.788 373.466 502.445 373.466C504.09 373.466 505.15 374.736 505.15 376.459ZM509.162 380.269C509.648 380.269 509.946 380.125 510.156 379.926L509.913 379.308C509.802 379.429 509.581 379.529 509.349 379.529C508.985 379.529 508.808 379.242 508.808 378.844V375.531H509.89V374.802H508.808V373.344H507.98V374.802H507.096V375.531H507.98V379.021C507.98 379.816 508.377 380.269 509.162 380.269ZM514.987 380.136H515.816V376.37C515.816 375.211 515.23 374.67 514.115 374.67C513.309 374.67 512.58 375.133 512.204 375.575V372.77H511.376V380.136H512.204V376.238C512.525 375.807 513.143 375.41 513.784 375.41C514.501 375.41 514.987 375.686 514.987 376.624V380.136ZM517.476 377.464C517.476 379.131 518.613 380.269 520.193 380.269C521.065 380.269 521.783 379.982 522.313 379.452L521.915 378.91C521.496 379.341 520.877 379.584 520.27 379.584C519.121 379.584 518.415 378.745 518.348 377.74H522.666V377.53C522.666 375.929 521.717 374.67 520.104 374.67C518.58 374.67 517.476 375.918 517.476 377.464ZM520.093 375.354C521.308 375.354 521.838 376.337 521.849 377.132H518.348C518.392 376.315 518.956 375.354 520.093 375.354ZM524.323 380.136H525.152V376.359C525.395 375.929 526.09 375.509 526.598 375.509C526.731 375.509 526.83 375.52 526.93 375.542V374.692C526.201 374.692 525.582 375.1 525.152 375.664V374.802H524.323V380.136Z" fill="#9DB1C9"/>
<path d="M377.403 380.136H378.287V372.77H377.37V378.59L373.129 372.77H372.191V380.136H373.107V374.195L377.403 380.136ZM380.325 380.136H385.151V379.319H381.242V376.779H385.074V375.962H381.242V373.587H385.151V372.77H380.325V380.136ZM386.63 376.459C386.63 378.634 388.099 380.269 390.286 380.269C392.461 380.269 393.941 378.634 393.941 376.459C393.941 374.283 392.461 372.649 390.286 372.649C388.099 372.649 386.63 374.283 386.63 376.459ZM392.991 376.459C392.991 378.17 391.931 379.452 390.286 379.452C388.629 379.452 387.58 378.17 387.58 376.459C387.58 374.736 388.629 373.466 390.286 373.466C391.931 373.466 392.991 374.736 392.991 376.459Z" fill="#9DB1C9"/>
<path d="M244.999 377.276C244.999 379.087 246.004 380.269 248.003 380.269C250.002 380.269 251.007 379.098 251.007 377.265V372.77H250.091V377.254C250.091 378.601 249.362 379.452 248.003 379.452C246.645 379.452 245.916 378.601 245.916 377.254V372.77H244.999V377.276ZM258.26 380.136H259.144V372.77H258.227V378.59L253.986 372.77H253.048V380.136H253.964V374.195L258.26 380.136ZM261.182 380.136H262.099V372.77H261.182V380.136Z" fill="#9DB1C9"/>
<path d="M114.618 380.137H117.975C119.322 380.137 120.106 379.331 120.106 378.149C120.106 377.265 119.455 376.459 118.671 376.338C119.344 376.194 119.963 375.576 119.963 374.648C119.963 373.544 119.179 372.771 117.898 372.771H114.618V380.137ZM115.534 375.962V373.588H117.743C118.571 373.588 119.013 374.118 119.013 374.781C119.013 375.454 118.571 375.962 117.743 375.962H115.534ZM115.534 379.319V376.779H117.787C118.693 376.779 119.157 377.376 119.157 378.049C119.157 378.834 118.649 379.319 117.787 379.319H115.534ZM123.517 380.137H124.434V373.588H126.775V372.771H121.187V373.588H123.517V380.137ZM131.464 380.269C132.8 380.269 133.684 379.651 134.302 378.811L133.518 378.381C133.098 379.01 132.336 379.452 131.464 379.452C129.885 379.452 128.659 378.204 128.659 376.459C128.659 374.703 129.885 373.466 131.464 373.466C132.336 373.466 133.098 373.919 133.518 374.538L134.291 374.107C133.706 373.279 132.8 372.649 131.464 372.649C129.377 372.649 127.709 374.195 127.709 376.459C127.709 378.723 129.377 380.269 131.464 380.269Z" fill="#9DB1C9"/>
<rect x="89.4729" y="359.882" width="458.313" height="0.788835" fill="#E7EBF0"/>
<path d="M75.546 362.329C75.546 360.882 74.3422 360.462 73.2047 360.142V357.746C73.8232 357.834 74.3975 358.099 74.8282 358.585L75.3804 357.911C74.8503 357.348 74.1214 356.984 73.2047 356.906V355.879H72.5311V356.884C71.2058 356.973 70.234 357.779 70.234 358.927C70.234 360.286 71.4046 360.672 72.5311 360.97V363.654C71.6586 363.566 70.985 363.113 70.5543 362.627L70.0021 363.323C70.5543 363.952 71.4046 364.416 72.5311 364.482V365.465H73.2047V364.471C74.9165 364.35 75.546 363.323 75.546 362.329ZM71.1838 358.872C71.1838 358.221 71.7359 357.757 72.5311 357.713V359.966C71.7912 359.756 71.1838 359.502 71.1838 358.872ZM73.2047 363.643V361.147C73.9668 361.379 74.6073 361.655 74.6073 362.406C74.6073 362.914 74.2649 363.555 73.2047 363.643ZM76.9634 360.683C76.9634 362.472 77.7586 364.493 79.7796 364.493C81.7895 364.493 82.5957 362.472 82.5957 360.683C82.5957 358.883 81.7895 356.884 79.7796 356.884C77.7586 356.884 76.9634 358.883 76.9634 360.683ZM81.657 360.683C81.657 362.152 81.1821 363.676 79.7796 363.676C78.377 363.676 77.9021 362.152 77.9021 360.683C77.9021 359.215 78.377 357.702 79.7796 357.702C81.1821 357.702 81.657 359.215 81.657 360.683Z" fill="#9DB1C9"/>
<rect x="89.4733" y="307.817" width="458.313" height="0.788835" fill="#E7EBF0"/>
<path d="M61.4422 310.264C61.4422 308.817 60.2384 308.398 59.1009 308.078V305.681C59.7193 305.769 60.2936 306.034 60.7243 306.52L61.2765 305.847C60.7464 305.283 60.0175 304.919 59.1009 304.842V303.815H58.4272V304.82C57.102 304.908 56.1301 305.714 56.1301 306.863C56.1301 308.221 57.3008 308.608 58.4272 308.906V311.589C57.5548 311.501 56.8811 311.048 56.4504 310.562L55.8982 311.258C56.4504 311.888 57.3008 312.351 58.4272 312.418V313.401H59.1009V312.407C60.8127 312.285 61.4422 311.258 61.4422 310.264ZM57.0799 306.807C57.0799 306.156 57.6321 305.692 58.4272 305.648V307.901C57.6873 307.691 57.0799 307.437 57.0799 306.807ZM59.1009 311.578V309.082C59.8629 309.314 60.5034 309.59 60.5034 310.341C60.5034 310.849 60.1611 311.49 59.1009 311.578ZM64.2621 312.296H65.1787V304.93H64.3725L62.5282 306.83L63.0804 307.393L64.2621 306.145V312.296ZM68.32 312.296H69.2366V304.93H68.4304L66.5861 306.83L67.1383 307.393L68.32 306.145V312.296ZM70.9753 308.619C70.9753 310.408 71.7705 312.429 73.7915 312.429C75.8014 312.429 76.6076 310.408 76.6076 308.619C76.6076 306.819 75.8014 304.82 73.7915 304.82C71.7705 304.82 70.9753 306.819 70.9753 308.619ZM75.6689 308.619C75.6689 310.087 75.194 311.611 73.7915 311.611C72.3889 311.611 71.914 310.087 71.914 308.619C71.914 307.15 72.3889 305.637 73.7915 305.637C75.194 305.637 75.6689 307.15 75.6689 308.619ZM81.9514 312.296H83.0116L80.6372 309.381L83.0005 306.962H81.9514L79.1463 309.8V304.93H78.318V312.296H79.1463V310.772L80.0298 309.9L81.9514 312.296Z" fill="#9DB1C9"/>
<rect x="89.4735" y="255.755" width="458.313" height="0.788835" fill="#E7EBF0"/>
<path d="M55.9423 258.202C55.9423 256.755 54.7386 256.336 53.6011 256.015V253.619C54.2195 253.707 54.7938 253.972 55.2245 254.458L55.7767 253.784C55.2466 253.221 54.5177 252.857 53.6011 252.78V251.752H52.9274V252.757C51.6022 252.846 50.6303 253.652 50.6303 254.801C50.6303 256.159 51.8009 256.545 52.9274 256.844V259.527C52.055 259.439 51.3813 258.986 50.9506 258.5L50.3984 259.196C50.9506 259.825 51.8009 260.289 52.9274 260.355V261.338H53.6011V260.344C55.3128 260.223 55.9423 259.196 55.9423 258.202ZM51.5801 254.745C51.5801 254.094 52.1323 253.63 52.9274 253.586V255.839C52.1875 255.629 51.5801 255.375 51.5801 254.745ZM53.6011 259.516V257.02C54.3631 257.252 55.0036 257.528 55.0036 258.279C55.0036 258.787 54.6613 259.428 53.6011 259.516ZM57.3929 260.234H62.4509V259.417H58.8396C60.8937 257.793 62.4177 256.424 62.4177 254.922C62.4177 253.453 61.1698 252.757 59.944 252.757C58.9058 252.757 57.945 253.177 57.3818 253.917L57.945 254.502C58.3758 253.95 59.0605 253.575 59.944 253.575C60.706 253.575 61.479 253.983 61.479 254.922C61.479 256.192 60.0433 257.418 57.3929 259.505V260.234ZM64.2009 260.234H69.2589V259.417H65.6476C67.7017 257.793 69.2258 256.424 69.2258 254.922C69.2258 253.453 67.9778 252.757 66.752 252.757C65.7139 252.757 64.7531 253.177 64.1898 253.917L64.7531 254.502C65.1838 253.95 65.8685 253.575 66.752 253.575C67.514 253.575 68.287 253.983 68.287 254.922C68.287 256.192 66.8514 257.418 64.2009 259.505V260.234ZM70.9758 256.556C70.9758 258.346 71.7709 260.367 73.7919 260.367C75.8019 260.367 76.608 258.346 76.608 256.556C76.608 254.756 75.8019 252.757 73.7919 252.757C71.7709 252.757 70.9758 254.756 70.9758 256.556ZM75.6693 256.556C75.6693 258.025 75.1945 259.549 73.7919 259.549C72.3894 259.549 71.9145 258.025 71.9145 256.556C71.9145 255.088 72.3894 253.575 73.7919 253.575C75.1945 253.575 75.6693 255.088 75.6693 256.556ZM81.9518 260.234H83.012L80.6376 257.318L83.001 254.9H81.9518L79.1467 257.738V252.868H78.3184V260.234H79.1467V258.71L80.0302 257.838L81.9518 260.234Z" fill="#9DB1C9"/>
<rect x="89.4744" y="203.69" width="458.313" height="0.788835" fill="#E7EBF0"/>
<path d="M56.6335 206.137C56.6335 204.691 55.4297 204.271 54.2922 203.951V201.554C54.9106 201.643 55.4849 201.908 55.9156 202.394L56.4678 201.72C55.9377 201.157 55.2088 200.792 54.2922 200.715V199.688H53.6185V200.693C52.2933 200.781 51.3214 201.587 51.3214 202.736C51.3214 204.094 52.4921 204.481 53.6185 204.779V207.463C52.7461 207.374 52.0724 206.921 51.6417 206.436L51.0895 207.131C51.6417 207.761 52.4921 208.225 53.6185 208.291V209.274H54.2922V208.28C56.004 208.158 56.6335 207.131 56.6335 206.137ZM52.2712 202.681C52.2712 202.029 52.8234 201.565 53.6185 201.521V203.774C52.8786 203.564 52.2712 203.31 52.2712 202.681ZM54.2922 207.452V204.956C55.0542 205.188 55.6947 205.464 55.6947 206.215C55.6947 206.723 55.3524 207.363 54.2922 207.452ZM57.8079 207.087C58.2607 207.75 59.1773 208.302 60.4253 208.302C62.0487 208.302 63.0316 207.407 63.0316 206.182C63.0316 205 62.0045 204.426 61.3308 204.37C62.0266 204.249 62.9211 203.719 62.9211 202.659C62.9211 201.411 61.8388 200.693 60.4253 200.693C59.2878 200.693 58.4374 201.19 57.9073 201.83L58.4153 202.405C58.9564 201.819 59.5528 201.51 60.359 201.51C61.2535 201.51 62.0045 201.952 62.0045 202.769C62.0045 203.619 61.2204 203.984 60.2927 203.984C59.9945 203.984 59.6522 203.984 59.5307 203.973V204.812C59.6411 204.801 59.9835 204.801 60.2927 204.801C61.375 204.801 62.126 205.188 62.126 206.104C62.126 206.955 61.4744 207.485 60.4032 207.485C59.5307 207.485 58.7797 207.087 58.349 206.513L57.8079 207.087ZM64.2708 207.087C64.7236 207.75 65.6402 208.302 66.8882 208.302C68.5116 208.302 69.4945 207.407 69.4945 206.182C69.4945 205 68.4674 204.426 67.7937 204.37C68.4895 204.249 69.384 203.719 69.384 202.659C69.384 201.411 68.3017 200.693 66.8882 200.693C65.7507 200.693 64.9003 201.19 64.3702 201.83L64.8782 202.405C65.4193 201.819 66.0157 201.51 66.8219 201.51C67.7164 201.51 68.4674 201.952 68.4674 202.769C68.4674 203.619 67.6833 203.984 66.7556 203.984C66.4574 203.984 66.1151 203.984 65.9936 203.973V204.812C66.1041 204.801 66.4464 204.801 66.7556 204.801C67.8379 204.801 68.5889 205.188 68.5889 206.104C68.5889 206.955 67.9373 207.485 66.8661 207.485C65.9936 207.485 65.2426 207.087 64.8119 206.513L64.2708 207.087ZM70.9767 204.492C70.9767 206.281 71.7718 208.302 73.7928 208.302C75.8028 208.302 76.6089 206.281 76.6089 204.492C76.6089 202.692 75.8028 200.693 73.7928 200.693C71.7718 200.693 70.9767 202.692 70.9767 204.492ZM75.6702 204.492C75.6702 205.961 75.1953 207.485 73.7928 207.485C72.3903 207.485 71.9154 205.961 71.9154 204.492C71.9154 203.023 72.3903 201.51 73.7928 201.51C75.1953 201.51 75.6702 203.023 75.6702 204.492ZM81.9527 208.169H83.0129L80.6385 205.254L83.0019 202.835H81.9527L79.1476 205.673V200.803H78.3193V208.169H79.1476V206.645L80.0311 205.773L81.9527 208.169Z" fill="#9DB1C9"/>
<rect x="89.4744" y="151.628" width="458.313" height="0.788835" fill="#E7EBF0"/>
<path d="M56.6119 154.075C56.6119 152.628 55.4081 152.209 54.2706 151.889V149.492C54.8891 149.58 55.4633 149.845 55.894 150.331L56.4462 149.658C55.9161 149.094 55.1873 148.73 54.2706 148.653V147.626H53.597V148.631C52.2717 148.719 51.2999 149.525 51.2999 150.674C51.2999 152.032 52.4705 152.419 53.597 152.717V155.4C52.7245 155.312 52.0508 154.859 51.6201 154.373L51.068 155.069C51.6201 155.699 52.4705 156.162 53.597 156.229V157.212H54.2706V156.218C55.9824 156.096 56.6119 155.069 56.6119 154.075ZM52.2496 150.619C52.2496 149.967 52.8018 149.503 53.597 149.459V151.712C52.857 151.502 52.2496 151.248 52.2496 150.619ZM54.2706 155.389V152.894C55.0326 153.125 55.6732 153.402 55.6732 154.153C55.6732 154.661 55.3308 155.301 54.2706 155.389ZM61.3203 156.107H62.2369V154.241H63.275V153.435H62.2369V148.741H60.978L57.8195 153.479V154.241H61.3203V156.107ZM61.3203 149.591V153.435H58.7361L61.3203 149.591ZM67.794 156.107H68.7106V154.241H69.7487V153.435H68.7106V148.741H67.4516L64.2931 153.479V154.241H67.794V156.107ZM67.794 149.591V153.435H65.2098L67.794 149.591ZM70.9767 152.43C70.9767 154.219 71.7718 156.24 73.7928 156.24C75.8028 156.24 76.6089 154.219 76.6089 152.43C76.6089 150.63 75.8028 148.631 73.7928 148.631C71.7718 148.631 70.9767 150.63 70.9767 152.43ZM75.6702 152.43C75.6702 153.899 75.1954 155.423 73.7928 155.423C72.3903 155.423 71.9154 153.899 71.9154 152.43C71.9154 150.961 72.3903 149.448 73.7928 149.448C75.1954 149.448 75.6702 150.961 75.6702 152.43ZM81.9527 156.107H83.0129L80.6385 153.192L83.0019 150.773H81.9527L79.1476 153.611V148.741H78.3193V156.107H79.1476V154.583L80.0311 153.711L81.9527 156.107Z" fill="#9DB1C9"/>
<path d="M502.823 339.371C502.823 337.193 504.589 335.427 506.767 335.427H517.811C519.989 335.427 521.755 337.193 521.755 339.371V359.565H502.823V339.371Z" fill="#03122E"/>
<path d="M373.455 224.99C373.455 222.811 375.221 221.046 377.399 221.046H388.443C390.621 221.046 392.387 222.811 392.387 224.99V359.881H373.455V224.99Z" fill="#0182FF"/>
<path d="M244.085 176.872C244.085 174.694 245.851 172.928 248.029 172.928H259.073C261.251 172.928 263.017 174.694 263.017 176.872V359.882H244.085V176.872Z" fill="#33C15D"/>
<path d="M114.717 162.673C114.717 160.495 116.483 158.729 118.661 158.729H129.705C131.883 158.729 133.649 160.495 133.649 162.673V359.882H114.717V162.673Z" fill="#F9A001"/>
<g clip-path="url(#clip2_2_576)">
<path d="M55.3009 122.431C57.699 122.431 59.0242 121.153 59.7815 119.843L57.8568 118.913C57.415 119.78 56.4684 120.443 55.3009 120.443C53.4708 120.443 52.0825 118.976 52.0825 116.988C52.0825 115 53.4708 113.533 55.3009 113.533C56.4684 113.533 57.415 114.211 57.8568 115.063L59.7815 114.116C59.04 112.807 57.699 111.545 55.3009 111.545C52.2245 111.545 49.7791 113.754 49.7791 116.988C49.7791 120.222 52.2245 122.431 55.3009 122.431ZM64.791 122.431C67.3153 122.431 68.8298 120.601 68.8298 118.423C68.8298 116.262 67.3153 114.432 64.791 114.432C62.2825 114.432 60.7679 116.262 60.7679 118.423C60.7679 120.601 62.2825 122.431 64.791 122.431ZM64.791 120.648C63.5446 120.648 62.8504 119.623 62.8504 118.423C62.8504 117.24 63.5446 116.215 64.791 116.215C66.0373 116.215 66.7473 117.24 66.7473 118.423C66.7473 119.623 66.0373 120.648 64.791 120.648ZM71.4995 113.501C72.1622 113.501 72.6986 112.965 72.6986 112.302C72.6986 111.64 72.1622 111.103 71.4995 111.103C70.8527 111.103 70.3005 111.64 70.3005 112.302C70.3005 112.965 70.8527 113.501 71.4995 113.501ZM70.5056 122.241H72.5092V114.621H70.5056V122.241ZM79.8285 122.241H81.8322V116.862C81.8322 115.379 81.0275 114.432 79.3552 114.432C78.1089 114.432 77.178 115.032 76.689 115.615V114.621H74.6853V122.241H76.689V117.114C77.0203 116.657 77.6356 116.215 78.4244 116.215C79.2763 116.215 79.8285 116.578 79.8285 117.635V122.241ZM93.4748 122.241H95.4942V111.718H93.4748V115.599C92.8752 114.826 92.0233 114.432 91.124 114.432C89.1835 114.432 87.7478 115.947 87.7478 118.439C87.7478 120.979 89.1993 122.431 91.124 122.431C92.0391 122.431 92.8752 122.021 93.4748 121.263V122.241ZM93.4748 119.78C93.1434 120.285 92.4177 120.648 91.7393 120.648C90.6034 120.648 89.8146 119.749 89.8146 118.439C89.8146 117.114 90.6034 116.215 91.7393 116.215C92.4177 116.215 93.1434 116.578 93.4748 117.082V119.78ZM98.6643 113.501C99.3269 113.501 99.8633 112.965 99.8633 112.302C99.8633 111.64 99.3269 111.103 98.6643 111.103C98.0175 111.103 97.4653 111.64 97.4653 112.302C97.4653 112.965 98.0175 113.501 98.6643 113.501ZM97.6704 122.241H99.674V114.621H97.6704V122.241ZM103.822 122.241H105.984L109.044 114.621H106.883L104.895 119.922L102.907 114.621H100.761L103.822 122.241ZM109.639 118.423C109.639 120.869 111.39 122.431 113.709 122.431C114.893 122.431 116.092 122.068 116.849 121.374L115.965 120.08C115.476 120.553 114.64 120.837 113.93 120.837C112.637 120.837 111.863 120.033 111.737 119.07H117.401V118.629C117.401 116.136 115.855 114.432 113.583 114.432C111.264 114.432 109.639 116.215 109.639 118.423ZM113.583 116.025C114.908 116.025 115.413 116.988 115.461 117.714H111.706C111.8 116.956 112.337 116.025 113.583 116.025ZM119.038 122.241H121.041V117.209C121.373 116.72 122.256 116.341 122.919 116.341C123.14 116.341 123.329 116.373 123.471 116.404V114.448C122.524 114.448 121.578 114.984 121.041 115.663V114.621H119.038V122.241ZM124.25 121.248C125.054 121.989 126.332 122.431 127.657 122.431C129.771 122.431 130.955 121.374 130.955 119.985C130.955 118.092 129.203 117.745 127.894 117.493C127.042 117.319 126.443 117.146 126.443 116.672C126.443 116.231 126.916 115.962 127.642 115.962C128.572 115.962 129.44 116.357 129.898 116.846L130.702 115.473C129.945 114.874 128.919 114.432 127.626 114.432C125.622 114.432 124.502 115.552 124.502 116.83C124.502 118.644 126.19 118.96 127.5 119.212C128.367 119.386 129.03 119.575 129.03 120.112C129.03 120.585 128.62 120.885 127.752 120.885C126.805 120.885 125.669 120.364 125.117 119.843L124.25 121.248ZM133.614 113.501C134.277 113.501 134.813 112.965 134.813 112.302C134.813 111.64 134.277 111.103 133.614 111.103C132.967 111.103 132.415 111.64 132.415 112.302C132.415 112.965 132.967 113.501 133.614 113.501ZM132.62 122.241H134.624V114.621H132.62V122.241ZM139.356 122.431C140.192 122.431 140.728 122.21 141.028 121.942L140.602 120.427C140.492 120.538 140.208 120.648 139.908 120.648C139.466 120.648 139.214 120.285 139.214 119.812V116.373H140.76V114.621H139.214V112.539H137.194V114.621H135.932V116.373H137.194V120.348C137.194 121.705 137.951 122.431 139.356 122.431ZM142.351 123.425L142.052 125.223C142.304 125.286 142.809 125.334 143.046 125.334C144.355 125.302 145.365 124.923 145.933 123.488L149.514 114.621H147.353L145.365 119.922L143.377 114.621H141.231L144.324 122.352L144.04 122.999C143.85 123.409 143.503 123.551 142.983 123.551C142.793 123.551 142.525 123.504 142.351 123.425Z" fill="#061431"/>
<g clip-path="url(#clip3_2_576)">
<path d="M162.046 111.397C158.575 111.397 155.735 114.237 155.735 117.708C155.735 121.178 158.575 124.018 162.046 124.018C165.517 124.018 168.357 121.178 168.357 117.708C168.357 114.237 165.517 111.397 162.046 111.397ZM162.046 122.441C159.443 122.441 157.313 120.311 157.313 117.708C157.313 115.104 159.443 112.975 162.046 112.975C164.649 112.975 166.779 115.104 166.779 117.708C166.779 120.311 164.649 122.441 162.046 122.441Z" fill="#A2B1C5"/>
<path d="M162.835 116.919H161.257V120.863H162.835V116.919Z" fill="#A2B1C5"/>
<path d="M162.046 116.13C162.482 116.13 162.835 115.777 162.835 115.341C162.835 114.905 162.482 114.552 162.046 114.552C161.61 114.552 161.257 114.905 161.257 115.341C161.257 115.777 161.61 116.13 162.046 116.13Z" fill="#A2B1C5"/>
</g>
</g>
</g>
</g>
<g filter="url(#filter1_d_2_576)">
<path d="M272 63C272 56.3726 277.373 51 284 51H620C626.627 51 632 56.3726 632 63V103C632 109.627 626.627 115 620 115H284C277.373 115 272 109.627 272 103V63Z" fill="white"/>
<circle cx="308" cy="83" r="16" fill="#EFFAF2"/>
<path fill-rule="evenodd" clip-rule="evenodd" d="M314.5 86H315C315.6 86 316 86.4 316 87C316 87.6 315.6 88 315 88H301C300.4 88 300 87.6 300 87C300 86.4 300.4 86 301 86H301.5C302.2 85.3 303 84.3 303 83V80C303 77.2 305.2 75 308 75C310.8 75 313 77.2 313 80V83C313 84.3 313.8 85.3 314.5 86ZM308 91C306.9 91 306 90.1 306 89H310C310 90.1 309.1 91 308 91Z" fill="#33C15D"/>
<path d="M344.688 78H346.24V67.328H344.64V75.328L338.832 67.328H337.184V78H338.784V69.808L344.688 78ZM348.294 74.128C348.294 76.56 349.99 78.192 352.294 78.192C353.542 78.192 354.63 77.792 355.398 77.04L354.726 76.096C354.15 76.688 353.254 77.008 352.438 77.008C350.886 77.008 349.926 75.92 349.814 74.608H355.926V74.256C355.926 71.888 354.486 70.08 352.166 70.08C349.91 70.08 348.294 71.888 348.294 74.128ZM352.166 71.264C353.798 71.264 354.486 72.544 354.518 73.568H349.798C349.878 72.512 350.614 71.264 352.166 71.264ZM364.631 78H366.119L368.551 70.272H367.047L365.287 76.16L363.351 70.272H362.103L360.167 76.16L358.407 70.272H356.903L359.335 78H360.823L362.727 72.064L364.631 78ZM379.414 78.192C381.51 78.192 382.806 77.184 383.654 75.936L382.294 75.216C381.734 76.112 380.678 76.768 379.414 76.768C377.254 76.768 375.59 75.056 375.59 72.672C375.59 70.272 377.254 68.576 379.414 68.576C380.678 68.576 381.734 69.232 382.294 70.128L383.654 69.408C382.822 68.16 381.51 67.152 379.414 67.152C376.374 67.152 373.942 69.392 373.942 72.672C373.942 75.952 376.374 78.192 379.414 78.192ZM388.842 78.192C391.258 78.192 392.746 76.368 392.746 74.128C392.746 71.904 391.258 70.08 388.842 70.08C386.442 70.08 384.938 71.904 384.938 74.128C384.938 76.368 386.442 78.192 388.842 78.192ZM388.842 76.912C387.306 76.912 386.442 75.6 386.442 74.128C386.442 72.672 387.306 71.36 388.842 71.36C390.394 71.36 391.242 72.672 391.242 74.128C391.242 75.6 390.394 76.912 388.842 76.912ZM395.478 68.976C395.99 68.976 396.406 68.576 396.406 68.064C396.406 67.552 395.99 67.136 395.478 67.136C394.982 67.136 394.55 67.552 394.55 68.064C394.55 68.576 394.982 68.976 395.478 68.976ZM394.774 78H396.214V70.272H394.774V78ZM403.924 78H405.364V72.576C405.364 70.944 404.516 70.08 402.884 70.08C401.684 70.08 400.66 70.736 400.148 71.36V70.272H398.708V78H400.148V72.48C400.564 71.904 401.38 71.36 402.276 71.36C403.268 71.36 403.924 71.776 403.924 73.056V78ZM407.846 78H409.286V76.896C409.862 77.664 410.774 78.192 411.814 78.192C413.814 78.192 415.254 76.672 415.254 74.144C415.254 71.664 413.83 70.08 411.814 70.08C410.806 70.08 409.894 70.56 409.286 71.392V67.328H407.846V78ZM409.286 75.792V72.512C409.67 71.888 410.55 71.36 411.43 71.36C412.87 71.36 413.766 72.528 413.766 74.144C413.766 75.76 412.87 76.912 411.43 76.912C410.55 76.912 409.67 76.416 409.286 75.792ZM422.064 78H423.504V72.784C423.504 70.816 422.08 70.08 420.4 70.08C419.152 70.08 418.096 70.496 417.232 71.344L417.856 72.336C418.544 71.648 419.296 71.312 420.176 71.312C421.28 71.312 422.064 71.888 422.064 72.848V74.128C421.472 73.44 420.576 73.104 419.536 73.104C418.24 73.104 416.848 73.872 416.848 75.632C416.848 77.328 418.256 78.192 419.536 78.192C420.576 78.192 421.456 77.824 422.064 77.152V78ZM422.064 76.304C421.632 76.88 420.88 77.184 420.08 77.184C419.04 77.184 418.304 76.56 418.304 75.648C418.304 74.736 419.04 74.112 420.08 74.112C420.88 74.112 421.632 74.416 422.064 74.992V76.304ZM425.339 76.992C426.123 77.792 427.259 78.192 428.555 78.192C430.587 78.192 431.675 77.152 431.675 75.824C431.675 74.048 430.075 73.68 428.731 73.376C427.771 73.152 426.939 72.928 426.939 72.256C426.939 71.632 427.547 71.248 428.523 71.248C429.499 71.248 430.363 71.648 430.811 72.192L431.451 71.184C430.795 70.56 429.835 70.08 428.507 70.08C426.619 70.08 425.563 71.136 425.563 72.368C425.563 74.032 427.099 74.384 428.411 74.688C429.403 74.912 430.283 75.168 430.283 75.936C430.283 76.592 429.707 77.04 428.619 77.04C427.579 77.04 426.555 76.512 426.027 75.936L425.339 76.992ZM433.216 74.128C433.216 76.56 434.912 78.192 437.216 78.192C438.464 78.192 439.552 77.792 440.32 77.04L439.648 76.096C439.072 76.688 438.176 77.008 437.36 77.008C435.808 77.008 434.848 75.92 434.736 74.608H440.848V74.256C440.848 71.888 439.408 70.08 437.088 70.08C434.832 70.08 433.216 71.888 433.216 74.128ZM437.088 71.264C438.72 71.264 439.408 72.544 439.44 73.568H434.72C434.8 72.512 435.536 71.264 437.088 71.264ZM449.302 78.192C450.054 78.192 450.502 77.984 450.806 77.696L450.438 76.608C450.294 76.768 449.99 76.912 449.654 76.912C449.158 76.912 448.902 76.512 448.902 75.968V71.536H450.47V70.272H448.902V68.16H447.462V70.272H446.182V71.536H447.462V76.288C447.462 77.504 448.086 78.192 449.302 78.192ZM452.265 78H453.705V72.624C454.041 72.048 455.017 71.504 455.737 71.504C455.929 71.504 456.089 71.52 456.233 71.552V70.096C455.209 70.096 454.297 70.688 453.705 71.456V70.272H452.265V78ZM462.639 78H464.079V72.784C464.079 70.816 462.655 70.08 460.975 70.08C459.727 70.08 458.671 70.496 457.807 71.344L458.431 72.336C459.119 71.648 459.871 71.312 460.751 71.312C461.855 71.312 462.639 71.888 462.639 72.848V74.128C462.047 73.44 461.151 73.104 460.111 73.104C458.815 73.104 457.423 73.872 457.423 75.632C457.423 77.328 458.831 78.192 460.111 78.192C461.151 78.192 462.031 77.824 462.639 77.152V78ZM462.639 76.304C462.207 76.88 461.455 77.184 460.655 77.184C459.615 77.184 458.879 76.56 458.879 75.648C458.879 74.736 459.615 74.112 460.655 74.112C461.455 74.112 462.207 74.416 462.639 74.992V76.304ZM471.802 78H473.242V72.576C473.242 70.944 472.394 70.08 470.762 70.08C469.562 70.08 468.538 70.736 468.026 71.36V70.272H466.586V78H468.026V72.48C468.442 71.904 469.258 71.36 470.154 71.36C471.146 71.36 471.802 71.776 471.802 73.056V78ZM475.052 76.992C475.836 77.792 476.972 78.192 478.268 78.192C480.3 78.192 481.388 77.152 481.388 75.824C481.388 74.048 479.788 73.68 478.444 73.376C477.484 73.152 476.652 72.928 476.652 72.256C476.652 71.632 477.26 71.248 478.236 71.248C479.212 71.248 480.076 71.648 480.524 72.192L481.164 71.184C480.508 70.56 479.548 70.08 478.22 70.08C476.332 70.08 475.276 71.136 475.276 72.368C475.276 74.032 476.812 74.384 478.124 74.688C479.116 74.912 479.996 75.168 479.996 75.936C479.996 76.592 479.42 77.04 478.332 77.04C477.292 77.04 476.268 76.512 475.74 75.936L475.052 76.992ZM488.176 78H489.616V72.784C489.616 70.816 488.192 70.08 486.512 70.08C485.264 70.08 484.208 70.496 483.344 71.344L483.968 72.336C484.656 71.648 485.408 71.312 486.288 71.312C487.392 71.312 488.176 71.888 488.176 72.848V74.128C487.584 73.44 486.688 73.104 485.648 73.104C484.352 73.104 482.96 73.872 482.96 75.632C482.96 77.328 484.368 78.192 485.648 78.192C486.688 78.192 487.568 77.824 488.176 77.152V78ZM488.176 76.304C487.744 76.88 486.992 77.184 486.192 77.184C485.152 77.184 484.416 76.56 484.416 75.648C484.416 74.736 485.152 74.112 486.192 74.112C486.992 74.112 487.744 74.416 488.176 74.992V76.304ZM491.644 74.128C491.644 76.448 493.244 78.192 495.58 78.192C497.036 78.192 497.916 77.584 498.476 76.832L497.516 75.952C497.052 76.592 496.428 76.912 495.644 76.912C494.124 76.912 493.148 75.728 493.148 74.128C493.148 72.528 494.124 71.36 495.644 71.36C496.428 71.36 497.052 71.664 497.516 72.32L498.476 71.44C497.916 70.688 497.036 70.08 495.58 70.08C493.244 70.08 491.644 71.808 491.644 74.128ZM502.389 78.192C503.141 78.192 503.589 77.984 503.893 77.696L503.525 76.608C503.381 76.768 503.077 76.912 502.741 76.912C502.245 76.912 501.989 76.512 501.989 75.968V71.536H503.557V70.272H501.989V68.16H500.549V70.272H499.269V71.536H500.549V76.288C500.549 77.504 501.173 78.192 502.389 78.192ZM506.056 68.976C506.568 68.976 506.984 68.576 506.984 68.064C506.984 67.552 506.568 67.136 506.056 67.136C505.56 67.136 505.128 67.552 505.128 68.064C505.128 68.576 505.56 68.976 506.056 68.976ZM505.352 78H506.792V70.272H505.352V78ZM512.71 78.192C515.126 78.192 516.614 76.368 516.614 74.128C516.614 71.904 515.126 70.08 512.71 70.08C510.31 70.08 508.806 71.904 508.806 74.128C508.806 76.368 510.31 78.192 512.71 78.192ZM512.71 76.912C511.174 76.912 510.31 75.6 510.31 74.128C510.31 72.672 511.174 71.36 512.71 71.36C514.262 71.36 515.11 72.672 515.11 74.128C515.11 75.6 514.262 76.912 512.71 76.912ZM523.859 78H525.299V72.576C525.299 70.944 524.451 70.08 522.819 70.08C521.619 70.08 520.595 70.736 520.083 71.36V70.272H518.643V78H520.083V72.48C520.499 71.904 521.315 71.36 522.211 71.36C523.203 71.36 523.859 71.776 523.859 73.056V78ZM338.96 98H340.56V87.328H339.152L336.288 90.256L337.232 91.232L338.96 89.424V98ZM342.846 97.168C342.846 97.712 343.294 98.176 343.838 98.176C344.382 98.176 344.846 97.712 344.846 97.168C344.846 96.624 344.382 96.176 343.838 96.176C343.294 96.176 342.846 96.624 342.846 97.168ZM346.378 96.448C347.066 97.408 348.442 98.192 350.299 98.192C352.714 98.192 354.203 96.896 354.203 95.104C354.203 93.424 352.73 92.592 351.722 92.496C352.779 92.304 354.042 91.52 354.042 90.032C354.042 88.24 352.474 87.168 350.299 87.168C348.586 87.168 347.322 87.888 346.522 88.832L347.37 89.824C348.154 89.024 349.034 88.592 350.155 88.592C351.418 88.592 352.443 89.168 352.443 90.256C352.443 91.36 351.386 91.84 350.09 91.84C349.674 91.84 349.114 91.84 348.938 91.824V93.28C349.098 93.264 349.658 93.264 350.09 93.264C351.642 93.264 352.602 93.76 352.602 94.944C352.602 96.064 351.722 96.768 350.25 96.768C349.05 96.768 347.946 96.224 347.274 95.408L346.378 96.448ZM357.145 98H358.905L363.161 88.432V87.328H355.673V88.736H361.305L357.145 98ZM369.293 98H374.429C376.397 98 377.517 96.8 377.517 95.12C377.517 93.824 376.589 92.672 375.453 92.496C376.429 92.288 377.309 91.392 377.309 90.048C377.309 88.496 376.205 87.328 374.301 87.328H369.293V98ZM370.893 91.856V88.736H373.997C375.069 88.736 375.661 89.424 375.661 90.304C375.661 91.184 375.069 91.856 373.997 91.856H370.893ZM370.893 96.592V93.264H374.077C375.261 93.264 375.869 94.032 375.869 94.912C375.869 95.952 375.197 96.592 374.077 96.592H370.893ZM382.055 98H383.655V88.736H386.951V87.328H378.743V88.736H382.055V98ZM393.421 98.192C395.517 98.192 396.813 97.184 397.661 95.936L396.301 95.216C395.741 96.112 394.685 96.768 393.421 96.768C391.261 96.768 389.597 95.056 389.597 92.672C389.597 90.272 391.261 88.576 393.421 88.576C394.685 88.576 395.741 89.232 396.301 90.128L397.661 89.408C396.829 88.16 395.517 87.152 393.421 87.152C390.381 87.152 387.949 89.392 387.949 92.672C387.949 95.952 390.381 98.192 393.421 98.192ZM405.189 100.944V96.88C405.813 97.728 406.709 98.192 407.717 98.192C409.733 98.192 411.157 96.656 411.157 94.128C411.157 91.6 409.733 90.08 407.717 90.08C406.677 90.08 405.749 90.608 405.189 91.376V90.272H403.749V100.944H405.189ZM409.653 94.128C409.653 95.744 408.773 96.912 407.333 96.912C406.453 96.912 405.573 96.384 405.189 95.776V92.496C405.573 91.872 406.453 91.36 407.333 91.36C408.773 91.36 409.653 92.528 409.653 94.128ZM418.399 98H419.839V90.272H418.399V95.824C417.967 96.4 417.151 96.912 416.255 96.912C415.263 96.912 414.623 96.528 414.623 95.248V90.272H413.183V95.728C413.183 97.36 413.999 98.192 415.647 98.192C416.831 98.192 417.807 97.584 418.399 96.944V98ZM422.321 98H423.761V92.624C424.097 92.048 425.073 91.504 425.793 91.504C425.985 91.504 426.145 91.52 426.289 91.552V90.096C425.265 90.096 424.353 90.688 423.761 91.456V90.272H422.321V98ZM427.447 94.128C427.447 96.448 429.047 98.192 431.383 98.192C432.839 98.192 433.719 97.584 434.279 96.832L433.319 95.952C432.855 96.592 432.231 96.912 431.447 96.912C429.927 96.912 428.951 95.728 428.951 94.128C428.951 92.528 429.927 91.36 431.447 91.36C432.231 91.36 432.855 91.664 433.319 92.32L434.279 91.44C433.719 90.688 432.839 90.08 431.383 90.08C429.047 90.08 427.447 91.808 427.447 94.128ZM441.28 98H442.72V92.544C442.72 90.912 441.888 90.08 440.24 90.08C439.056 90.08 438.016 90.736 437.504 91.36V87.328H436.064V98H437.504V92.48C437.92 91.904 438.736 91.36 439.632 91.36C440.624 91.36 441.28 91.744 441.28 93.024V98ZM449.986 98H451.426V92.784C451.426 90.816 450.002 90.08 448.322 90.08C447.074 90.08 446.018 90.496 445.154 91.344L445.778 92.336C446.466 91.648 447.218 91.312 448.098 91.312C449.202 91.312 449.986 91.888 449.986 92.848V94.128C449.394 93.44 448.498 93.104 447.458 93.104C446.162 93.104 444.77 93.872 444.77 95.632C444.77 97.328 446.178 98.192 447.458 98.192C448.498 98.192 449.378 97.824 449.986 97.152V98ZM449.986 96.304C449.554 96.88 448.802 97.184 448.002 97.184C446.962 97.184 446.226 96.56 446.226 95.648C446.226 94.736 446.962 94.112 448.002 94.112C448.802 94.112 449.554 94.416 449.986 94.992V96.304ZM453.261 96.992C454.045 97.792 455.181 98.192 456.477 98.192C458.509 98.192 459.597 97.152 459.597 95.824C459.597 94.048 457.997 93.68 456.653 93.376C455.693 93.152 454.861 92.928 454.861 92.256C454.861 91.632 455.469 91.248 456.445 91.248C457.421 91.248 458.285 91.648 458.733 92.192L459.373 91.184C458.717 90.56 457.757 90.08 456.429 90.08C454.541 90.08 453.485 91.136 453.485 92.368C453.485 94.032 455.021 94.384 456.333 94.688C457.325 94.912 458.205 95.168 458.205 95.936C458.205 96.592 457.629 97.04 456.541 97.04C455.501 97.04 454.477 96.512 453.949 95.936L453.261 96.992ZM461.138 94.128C461.138 96.56 462.834 98.192 465.138 98.192C466.386 98.192 467.474 97.792 468.242 97.04L467.57 96.096C466.994 96.688 466.098 97.008 465.282 97.008C463.73 97.008 462.77 95.92 462.658 94.608H468.77V94.256C468.77 91.888 467.33 90.08 465.01 90.08C462.754 90.08 461.138 91.888 461.138 94.128ZM465.01 91.264C466.642 91.264 467.33 92.544 467.362 93.568H462.642C462.722 92.512 463.458 91.264 465.01 91.264ZM476.275 98H477.715V87.328H476.275V91.392C475.651 90.56 474.739 90.08 473.747 90.08C471.731 90.08 470.291 91.664 470.291 94.144C470.291 96.672 471.731 98.192 473.747 98.192C474.771 98.192 475.699 97.664 476.275 96.896V98ZM476.275 95.792C475.875 96.416 475.011 96.912 474.131 96.912C472.691 96.912 471.795 95.744 471.795 94.144C471.795 92.528 472.691 91.36 474.131 91.36C475.011 91.36 475.875 91.872 476.275 92.496V95.792ZM484.898 98H486.338V91.536H487.906V90.272H486.338V89.76C486.338 88.832 486.77 88.352 487.49 88.352C487.746 88.352 487.986 88.416 488.178 88.528L488.514 87.456C488.178 87.264 487.746 87.168 487.25 87.168C485.874 87.168 484.898 88.096 484.898 89.76V90.272H483.618V91.536H484.898V98ZM492.904 98.192C495.32 98.192 496.808 96.368 496.808 94.128C496.808 91.904 495.32 90.08 492.904 90.08C490.504 90.08 489 91.904 489 94.128C489 96.368 490.504 98.192 492.904 98.192ZM492.904 96.912C491.368 96.912 490.504 95.6 490.504 94.128C490.504 92.672 491.368 91.36 492.904 91.36C494.456 91.36 495.304 92.672 495.304 94.128C495.304 95.6 494.456 96.912 492.904 96.912ZM498.836 98H500.276V92.624C500.612 92.048 501.588 91.504 502.308 91.504C502.5 91.504 502.66 91.52 502.804 91.552V90.096C501.78 90.096 500.868 90.688 500.276 91.456V90.272H498.836V98ZM516.48 94.976C516.48 92.848 514.72 92.24 513.056 91.792V88.672C513.904 88.816 514.688 89.2 515.296 89.84L516.24 88.656C515.44 87.84 514.384 87.328 513.056 87.2V85.712H511.92V87.184C509.936 87.328 508.576 88.56 508.576 90.208C508.576 92.224 510.288 92.816 511.92 93.232V96.72C510.72 96.576 509.776 95.952 509.152 95.264L508.24 96.496C509.056 97.408 510.272 98.064 511.92 98.176V99.6H513.056V98.16C515.488 97.968 516.48 96.512 516.48 94.976ZM510.224 90.096C510.224 89.264 510.896 88.688 511.92 88.608V91.488C510.96 91.216 510.224 90.864 510.224 90.096ZM513.056 96.72V93.536C514.064 93.84 514.848 94.208 514.848 95.12C514.848 95.792 514.368 96.576 513.056 96.72ZM518.37 96.512C519.202 97.552 520.418 98.192 522.242 98.192C524.498 98.192 526.162 96.816 526.162 94.624C526.162 92.432 524.546 91.2 522.754 91.2C521.714 91.2 520.818 91.632 520.306 92.144V88.736H525.458V87.328H518.706V93.184L519.858 93.552C520.562 92.88 521.33 92.592 522.258 92.592C523.634 92.592 524.546 93.408 524.546 94.688C524.546 95.856 523.618 96.768 522.226 96.768C520.978 96.768 520.018 96.288 519.314 95.424L518.37 96.512ZM532.661 98H534.261V95.44H535.733V94.032H534.261V87.328H532.069L527.589 94.128V95.44H532.661V98ZM532.661 88.784V94.032H529.173L532.661 88.784ZM538.003 100.08C538.819 99.504 539.411 98.544 539.411 97.504C539.411 96.656 538.883 96.176 538.291 96.176C537.747 96.176 537.315 96.608 537.315 97.152C537.315 97.68 537.683 98.064 538.179 98.064C538.259 98.064 538.387 98.032 538.419 98.032C538.339 98.56 537.843 99.2 537.331 99.52L538.003 100.08ZM540.847 96.448C541.535 97.408 542.911 98.192 544.767 98.192C547.183 98.192 548.671 96.896 548.671 95.104C548.671 93.424 547.199 92.592 546.191 92.496C547.247 92.304 548.511 91.52 548.511 90.032C548.511 88.24 546.943 87.168 544.767 87.168C543.055 87.168 541.791 87.888 540.991 88.832L541.839 89.824C542.623 89.024 543.503 88.592 544.623 88.592C545.887 88.592 546.911 89.168 546.911 90.256C546.911 91.36 545.855 91.84 544.559 91.84C544.143 91.84 543.583 91.84 543.407 91.824V93.28C543.567 93.264 544.127 93.264 544.559 93.264C546.111 93.264 547.071 93.76 547.071 94.944C547.071 96.064 546.191 96.768 544.719 96.768C543.519 96.768 542.415 96.224 541.743 95.408L540.847 96.448ZM550.43 95.28C550.43 97.152 552.238 98.192 554.398 98.192C556.526 98.192 558.334 97.136 558.334 95.28C558.334 93.888 557.182 92.912 555.87 92.496C557.086 92.128 558.174 91.328 558.174 89.952C558.174 88.016 556.206 87.168 554.398 87.168C552.542 87.168 550.606 88.016 550.606 89.952C550.606 91.328 551.678 92.128 552.894 92.496C551.582 92.912 550.43 93.888 550.43 95.28ZM556.558 90.192C556.558 91.328 555.054 91.744 554.398 91.856C553.742 91.744 552.222 91.328 552.222 90.192C552.222 89.184 553.15 88.592 554.398 88.592C555.598 88.592 556.558 89.184 556.558 90.192ZM556.734 95.088C556.734 96.128 555.63 96.768 554.398 96.768C553.118 96.768 552.046 96.128 552.046 95.088C552.046 93.84 553.726 93.296 554.398 93.216C555.038 93.296 556.734 93.84 556.734 95.088ZM560.02 92.672C560.02 95.312 561.236 98.192 564.196 98.192C567.156 98.192 568.372 95.312 568.372 92.672C568.372 90.032 567.156 87.168 564.196 87.168C561.236 87.168 560.02 90.032 560.02 92.672ZM566.74 92.672C566.74 94.752 566.084 96.768 564.196 96.768C562.308 96.768 561.652 94.752 561.652 92.672C561.652 90.592 562.308 88.592 564.196 88.592C566.084 88.592 566.74 90.592 566.74 92.672Z" fill="#061431"/>
<path d="M609.5 77.5L598.5 88.5" stroke="#A2B1C5" stroke-width="2" stroke-miterlimit="10"/>
<path d="M598.5 77.5L609.5 88.5" stroke="#A2B1C5" stroke-width="2" stroke-miterlimit="10"/>
<path d="M284 52H620V50H284V52ZM631 63V103H633V63H631ZM620 114H284V116H620V114ZM273 103V63H271V103H273ZM284 114C277.925 114 273 109.075 273 103H271C271 110.18 276.82 116 284 116V114ZM631 103C631 109.075 626.075 114 620 114V116C627.18 116 633 110.18 633 103H631ZM620 52C626.075 52 631 56.9249 631 63H633C633 55.8203 627.18 50 620 50V52ZM284 50C276.82 50 271 55.8203 271 63H273C273 56.9249 277.925 52 284 52V50Z" fill="#E7EBF0"/>
</g>
</g>
<defs>
<filter id="filter0_d_2_576" x="-32" y="35" width="661.029" height="437" filterUnits="userSpaceOnUse" color-interpolation-filters="sRGB">
<feFlood flood-opacity="0" result="BackgroundImageFix"/>
<feColorMatrix in="SourceAlpha" type="matrix" values="0 0 0 0 0 0 0 0 0 0 0 0 0 0 0 0 0 0 127 0" result="hardAlpha"/>
<feOffset dy="8"/>
<feGaussianBlur stdDeviation="28"/>
<feColorMatrix type="matrix" values="0 0 0 0 0.761212 0 0 0 0 0.797075 0 0 0 0 0.848307 0 0 0 0.2 0"/>
<feBlend mode="normal" in2="BackgroundImageFix" result="effect1_dropShadow_2_576"/>
<feBlend mode="normal" in="SourceGraphic" in2="effect1_dropShadow_2_576" result="shape"/>
</filter>
<filter id="filter1_d_2_576" x="216" y="19" width="472" height="176" filterUnits="userSpaceOnUse" color-interpolation-filters="sRGB">
<feFlood flood-opacity="0" result="BackgroundImageFix"/>
<feColorMatrix in="SourceAlpha" type="matrix" values="0 0 0 0 0 0 0 0 0 0 0 0 0 0 0 0 0 0 127 0" result="hardAlpha"/>
<feOffset dy="24"/>
<feGaussianBlur stdDeviation="28"/>
<feColorMatrix type="matrix" values="0 0 0 0 0.761212 0 0 0 0 0.797075 0 0 0 0 0.848307 0 0 0 0.4 0"/>
<feBlend mode="normal" in2="BackgroundImageFix" result="effect1_dropShadow_2_576"/>
<feBlend mode="normal" in="SourceGraphic" in2="effect1_dropShadow_2_576" result="shape"/>
</filter>
<clipPath id="clip0_2_576">
<rect width="656" height="440" fill="white"/>
</clipPath>
<clipPath id="clip1_2_576">
<rect x="24" y="83" width="549.029" height="325" rx="15.5753" fill="white"/>
</clipPath>
<clipPath id="clip2_2_576">
<rect width="119.114" height="18.932" fill="white" transform="translate(49.2427 108.241)"/>
</clipPath>
<clipPath id="clip3_2_576">
<rect width="12.6214" height="12.6214" fill="white" transform="translate(155.735 111.397)"/>
</clipPath>
</defs>
</svg>
